<svg xmlns="http://www.w3.org/2000/svg" width="14" height="14" viewBox="0 0 14 14">
    <path fill="#8A9AAD" fill-rule="evenodd" d="M0 1.007C0 .45.45 0 1.003 0h.327c.554 0 1.003.45 1.003 1.007v11.986c0 .556-.45 1.007-1.003 1.007h-.327C.45 14 0 13.55 0 12.993V1.007zm3.889 0C3.889.45 4.339 0 4.892 0h.327c.554 0 1.003.45 1.003 1.007v11.986c0 .556-.45 1.007-1.003 1.007h-.327c-.554 0-1.003-.45-1.003-1.007V1.007zm3.933.506A1.005 1.005 0 0 1 8.53.281l.316-.085a1.004 1.004 0 0 1 1.23.713l3.102 11.578a1.005 1.005 0 0 1-.708 1.232l-.316.085a1.004 1.004 0 0 1-1.23-.713L7.822 1.513z"/>
</svg>
