<svg xmlns="http://www.w3.org/2000/svg" width="55" height="38" viewBox="0 0 55 38">
    <path fill="#FFF" fill-rule="evenodd" d="M27.5 10.571H17.214v10.286H27.5V10.571zm3.429 17.143v3.429H13.786v-3.429h17.143zm0-20.571v17.143H13.786V7.143h17.143zM48.07 27.714v3.429H34.357v-3.429h13.714zm0-6.857v3.429H34.357v-3.429h13.714zm0-6.857v3.429H34.357V14h13.714zm0-6.857v3.428H34.357V7.143h13.714zM6.93 32.857V7.143H3.5v25.714c0 .938.777 1.714 1.714 1.714.938 0 1.715-.776 1.715-1.714zm44.571 0V3.714H10.357v29.143c0 .59-.107 1.179-.294 1.714h39.723c.937 0 1.714-.776 1.714-1.714zM54.93.286v32.571A5.144 5.144 0 0 1 49.786 38H5.214a5.144 5.144 0 0 1-5.143-5.143V3.714H6.93V.286h48z"/>
</svg>
