<svg xmlns="http://www.w3.org/2000/svg" width="18" height="17" viewBox="0 0 18 17">
    <g fill="none" fill-rule="evenodd">
        <path fill="#FFF" fill-rule="nonzero" d="M17.237 0C17.014 0 12.032.03 9 2.486 5.969.031.986 0 .763 0H0v15.254h.763c3.98 0 6.472.748 7.439 1.106l.798.29.792-.29c.953-.357 3.428-1.106 7.445-1.106H18V0h-.763zm-9 14.755c-1.222-.399-3.458-.942-6.712-1.017V1.56c1.48.109 4.765.543 6.712 2.276v10.918zm8.238-1.017c-3.254.075-5.49.618-6.712 1.017V3.837c1.947-1.733 5.232-2.167 6.712-2.276v12.177z"/>
        <path d="M-1-2h20v20H-1z"/>
    </g>
</svg>
